<svg width="27" height="26" viewBox="0 0 27 26" fill="none" xmlns="http://www.w3.org/2000/svg">
<path d="M7.82068 20.4001C6.38036 20.4001 5.22681 21.5411 5.22681 22.9499C5.22681 24.3589 6.38036 25.5 7.82068 25.5C9.26098 25.5 10.4276 24.3589 10.4276 22.9499C10.4276 21.5411 9.26098 20.4001 7.82068 20.4001ZM0 0V2.54999H2.60689L7.29278 12.2209L5.53313 15.3446C5.33109 15.7144 5.21378 16.1288 5.21378 16.5751C5.21378 17.9839 6.38036 19.125 7.82068 19.125H23.462V16.5751H8.37463C8.19216 16.5751 8.04878 16.4348 8.04878 16.2562C8.04878 16.1988 8.06181 16.1479 8.08788 16.1032L9.25446 14.025H18.9651C19.9427 14.025 20.7964 13.4959 21.2461 12.7117L25.906 4.437C26.0103 4.25849 26.069 4.04812 26.069 3.825C26.069 3.11737 25.4824 2.54999 24.7654 2.54999H5.49403L4.25575 0H0ZM20.8551 20.4001C19.4148 20.4001 18.2613 21.5411 18.2613 22.9499C18.2613 24.3589 19.4148 25.5 20.8551 25.5C22.2955 25.5 23.462 24.3589 23.462 22.9499C23.462 21.5411 22.2955 20.4001 20.8551 20.4001Z" fill="white"/>
</svg>
